<mxfile host="65bd71144e">
    <diagram id="_qm1-AJe0AePabwUvn4U" name="Page-1">
        <mxGraphModel dx="1035" dy="574" grid="0" gridSize="10" guides="1" tooltips="1" connect="1" arrows="1" fold="1" page="1" pageScale="1" pageWidth="583" pageHeight="413" background="#ffffff" math="0" shadow="0">
            <root>
                <object label="" id="0">
                    <mxCell/>
                </object>
                <mxCell id="1" parent="0"/>
                <mxCell id="155" style="edgeStyle=orthogonalEdgeStyle;rounded=0;orthogonalLoop=1;jettySize=auto;html=1;entryX=0;entryY=0.5;entryDx=0;entryDy=0;strokeColor=#000000;" edge="1" parent="1" source="72" target="120">
                    <mxGeometry relative="1" as="geometry"/>
                </mxCell>
                <mxCell id="156" style="edgeStyle=orthogonalEdgeStyle;rounded=0;orthogonalLoop=1;jettySize=auto;html=1;exitX=1;exitY=0.5;exitDx=0;exitDy=0;entryX=0;entryY=0.5;entryDx=0;entryDy=0;strokeColor=#000000;" edge="1" parent="1" source="72" target="126">
                    <mxGeometry relative="1" as="geometry"/>
                </mxCell>
                <mxCell id="72" value="Model" style="rounded=0;whiteSpace=wrap;html=1;labelBackgroundColor=none;sketch=0;fillColor=#f5f5f5;fontColor=#333333;strokeColor=#000000;labelPosition=center;verticalLabelPosition=bottom;align=center;verticalAlign=top;" parent="1" vertex="1">
                    <mxGeometry x="19" y="132" width="125" height="284" as="geometry"/>
                </mxCell>
                <mxCell id="89" value="Database I" style="shape=cylinder3;whiteSpace=wrap;html=1;boundedLbl=1;backgroundOutline=1;size=15;fillColor=#E6E6E6;strokeColor=#000000;labelPosition=center;verticalLabelPosition=bottom;align=center;verticalAlign=top;fontColor=#000000;" parent="1" vertex="1">
                    <mxGeometry x="362" y="12" width="208" height="264" as="geometry"/>
                </mxCell>
                <mxCell id="90" value="Country" style="swimlane;childLayout=stackLayout;horizontal=1;startSize=30;horizontalStack=0;rounded=1;fontSize=14;fontStyle=0;strokeWidth=2;resizeParent=0;resizeLast=1;shadow=0;dashed=0;align=center;fontColor=#000000;fillColor=#E6E6E6;" parent="1" vertex="1">
                    <mxGeometry x="46" y="151" width="89" height="84" as="geometry"/>
                </mxCell>
                <mxCell id="91" value="id&#10;name&#10;states" style="align=left;strokeColor=none;fillColor=none;spacingLeft=4;fontSize=12;verticalAlign=top;resizable=0;rotatable=0;part=1;fontColor=#000000;" parent="90" vertex="1">
                    <mxGeometry y="30" width="89" height="54" as="geometry"/>
                </mxCell>
                <mxCell id="92" value="State" style="swimlane;childLayout=stackLayout;horizontal=1;startSize=30;horizontalStack=0;rounded=1;fontSize=14;fontStyle=0;strokeWidth=2;resizeParent=0;resizeLast=1;shadow=0;dashed=0;align=center;fontColor=#000000;fillColor=#E6E6E6;" parent="1" vertex="1">
                    <mxGeometry x="44" y="251" width="89" height="93.5" as="geometry"/>
                </mxCell>
                <mxCell id="93" value="id&#10;name&#10;countryId&#10;country" style="align=left;strokeColor=none;fillColor=none;spacingLeft=4;fontSize=12;verticalAlign=top;resizable=0;rotatable=0;part=1;fontColor=#000000;" parent="92" vertex="1">
                    <mxGeometry y="30" width="89" height="63.5" as="geometry"/>
                </mxCell>
                <object label="Countries" id="94">
                    <mxCell style="shape=table;startSize=30;container=1;collapsible=1;childLayout=tableLayout;fixedRows=1;rowLines=0;fontStyle=1;align=center;resizeLast=1;fontColor=#000000;strokeColor=#000000;fillColor=#E6E6E6;" parent="1" vertex="1">
                        <mxGeometry x="410" y="51" width="117" height="90" as="geometry"/>
                    </mxCell>
                </object>
                <mxCell id="95" value="" style="shape=partialRectangle;collapsible=0;dropTarget=0;pointerEvents=0;fillColor=none;top=0;left=0;bottom=1;right=0;points=[[0,0.5],[1,0.5]];portConstraint=eastwest;" parent="94" vertex="1">
                    <mxGeometry y="30" width="117" height="30" as="geometry"/>
                </mxCell>
                <mxCell id="96" value="PK" style="shape=partialRectangle;connectable=0;fillColor=none;top=0;left=0;bottom=0;right=0;fontStyle=1;overflow=hidden;fontColor=#000000;" parent="95" vertex="1">
                    <mxGeometry width="23.75" height="30" as="geometry"/>
                </mxCell>
                <mxCell id="97" value="id" style="shape=partialRectangle;connectable=0;fillColor=none;top=0;left=0;bottom=0;right=0;align=left;spacingLeft=6;fontStyle=5;overflow=hidden;fontColor=#000000;" parent="95" vertex="1">
                    <mxGeometry x="23.75" width="93.25" height="30" as="geometry"/>
                </mxCell>
                <mxCell id="98" value="" style="shape=partialRectangle;collapsible=0;dropTarget=0;pointerEvents=0;fillColor=none;top=0;left=0;bottom=0;right=0;points=[[0,0.5],[1,0.5]];portConstraint=eastwest;" parent="94" vertex="1">
                    <mxGeometry y="60" width="117" height="30" as="geometry"/>
                </mxCell>
                <mxCell id="99" value="" style="shape=partialRectangle;connectable=0;fillColor=none;top=0;left=0;bottom=0;right=0;editable=1;overflow=hidden;" parent="98" vertex="1">
                    <mxGeometry width="23.75" height="30" as="geometry"/>
                </mxCell>
                <mxCell id="100" value="name" style="shape=partialRectangle;connectable=0;fillColor=none;top=0;left=0;bottom=0;right=0;align=left;spacingLeft=6;overflow=hidden;fontColor=#000000;" parent="98" vertex="1">
                    <mxGeometry x="23.75" width="93.25" height="30" as="geometry"/>
                </mxCell>
                <mxCell id="118" style="edgeStyle=orthogonalEdgeStyle;rounded=0;orthogonalLoop=1;jettySize=auto;html=1;exitX=0;exitY=0.5;exitDx=0;exitDy=0;entryX=0;entryY=0.5;entryDx=0;entryDy=0;fontColor=#000000;strokeColor=#000000;" parent="1" source="107" target="95" edge="1">
                    <mxGeometry relative="1" as="geometry"/>
                </mxCell>
                <mxCell id="107" value="States" style="shape=table;startSize=30;container=1;collapsible=1;childLayout=tableLayout;fixedRows=1;rowLines=0;fontStyle=1;align=center;resizeLast=1;fontColor=#000000;strokeColor=#000000;fillColor=#E6E6E6;" parent="1" vertex="1">
                    <mxGeometry x="410" y="147" width="118" height="120" as="geometry"/>
                </mxCell>
                <mxCell id="108" value="" style="shape=partialRectangle;collapsible=0;dropTarget=0;pointerEvents=0;fillColor=none;top=0;left=0;bottom=1;right=0;points=[[0,0.5],[1,0.5]];portConstraint=eastwest;" parent="107" vertex="1">
                    <mxGeometry y="30" width="118" height="30" as="geometry"/>
                </mxCell>
                <mxCell id="109" value="PK" style="shape=partialRectangle;connectable=0;fillColor=none;top=0;left=0;bottom=0;right=0;fontStyle=1;overflow=hidden;fontColor=#000000;" parent="108" vertex="1">
                    <mxGeometry width="30" height="30" as="geometry"/>
                </mxCell>
                <mxCell id="110" value="id" style="shape=partialRectangle;connectable=0;fillColor=none;top=0;left=0;bottom=0;right=0;align=left;spacingLeft=6;fontStyle=5;overflow=hidden;fontColor=#000000;" parent="108" vertex="1">
                    <mxGeometry x="30" width="88" height="30" as="geometry"/>
                </mxCell>
                <mxCell id="111" value="" style="shape=partialRectangle;collapsible=0;dropTarget=0;pointerEvents=0;fillColor=none;top=0;left=0;bottom=0;right=0;points=[[0,0.5],[1,0.5]];portConstraint=eastwest;fontColor=#000000;" parent="107" vertex="1">
                    <mxGeometry y="60" width="118" height="30" as="geometry"/>
                </mxCell>
                <mxCell id="112" value="FK" style="shape=partialRectangle;connectable=0;fillColor=none;top=0;left=0;bottom=0;right=0;editable=1;overflow=hidden;fontColor=#000000;" parent="111" vertex="1">
                    <mxGeometry width="30" height="30" as="geometry"/>
                </mxCell>
                <mxCell id="113" value="countryId" style="shape=partialRectangle;connectable=0;fillColor=none;top=0;left=0;bottom=0;right=0;align=left;spacingLeft=6;overflow=hidden;fontColor=#000000;" parent="111" vertex="1">
                    <mxGeometry x="30" width="88" height="30" as="geometry"/>
                </mxCell>
                <mxCell id="114" value="" style="shape=partialRectangle;collapsible=0;dropTarget=0;pointerEvents=0;fillColor=none;top=0;left=0;bottom=0;right=0;points=[[0,0.5],[1,0.5]];portConstraint=eastwest;" parent="107" vertex="1">
                    <mxGeometry y="90" width="118" height="30" as="geometry"/>
                </mxCell>
                <mxCell id="115" value="" style="shape=partialRectangle;connectable=0;fillColor=none;top=0;left=0;bottom=0;right=0;editable=1;overflow=hidden;" parent="114" vertex="1">
                    <mxGeometry width="30" height="30" as="geometry"/>
                </mxCell>
                <mxCell id="116" value="name" style="shape=partialRectangle;connectable=0;fillColor=none;top=0;left=0;bottom=0;right=0;align=left;spacingLeft=6;overflow=hidden;fontColor=#000000;" parent="114" vertex="1">
                    <mxGeometry x="30" width="88" height="30" as="geometry"/>
                </mxCell>
                <mxCell id="153" style="edgeStyle=orthogonalEdgeStyle;rounded=0;orthogonalLoop=1;jettySize=auto;html=1;exitX=1;exitY=0.5;exitDx=0;exitDy=0;entryX=0.023;entryY=0.383;entryDx=0;entryDy=0;entryPerimeter=0;labelBackgroundColor=#FFFFFF;fontColor=#000000;strokeColor=#000000;" parent="1" source="120" target="89" edge="1">
                    <mxGeometry relative="1" as="geometry"/>
                </mxCell>
                <mxCell id="120" value="Schema I" style="rounded=0;whiteSpace=wrap;html=1;labelBackgroundColor=none;sketch=0;fillColor=#f5f5f5;fontColor=#333333;strokeColor=#000000;labelPosition=center;verticalLabelPosition=bottom;align=center;verticalAlign=top;" parent="1" vertex="1">
                    <mxGeometry x="195" y="12" width="125" height="203" as="geometry"/>
                </mxCell>
                <mxCell id="121" value="Country" style="swimlane;childLayout=stackLayout;horizontal=1;startSize=30;horizontalStack=0;rounded=1;fontSize=14;fontStyle=0;strokeWidth=2;resizeParent=0;resizeLast=1;shadow=0;dashed=0;align=center;fontColor=#000000;fillColor=#E6E6E6;" parent="1" vertex="1">
                    <mxGeometry x="210" y="26" width="89" height="84" as="geometry"/>
                </mxCell>
                <mxCell id="122" value="id&#10;name&#10;states" style="align=left;strokeColor=none;fillColor=none;spacingLeft=4;fontSize=12;verticalAlign=top;resizable=0;rotatable=0;part=1;fontColor=#000000;" parent="121" vertex="1">
                    <mxGeometry y="30" width="89" height="54" as="geometry"/>
                </mxCell>
                <mxCell id="123" value="State" style="swimlane;childLayout=stackLayout;horizontal=1;startSize=30;horizontalStack=0;rounded=1;fontSize=14;fontStyle=0;strokeWidth=2;resizeParent=0;resizeLast=1;shadow=0;dashed=0;align=center;fontColor=#000000;fillColor=#E6E6E6;" parent="1" vertex="1">
                    <mxGeometry x="210" y="116" width="89" height="93.5" as="geometry"/>
                </mxCell>
                <mxCell id="124" value="id&#10;name&#10;countryId&#10;country" style="align=left;strokeColor=none;fillColor=none;spacingLeft=4;fontSize=12;verticalAlign=top;resizable=0;rotatable=0;part=1;fontColor=#000000;" parent="123" vertex="1">
                    <mxGeometry y="30" width="89" height="63.5" as="geometry"/>
                </mxCell>
                <mxCell id="154" style="edgeStyle=orthogonalEdgeStyle;rounded=0;orthogonalLoop=1;jettySize=auto;html=1;entryX=0.011;entryY=0.39;entryDx=0;entryDy=0;entryPerimeter=0;labelBackgroundColor=#FFFFFF;fontColor=#000000;strokeColor=#000000;" parent="1" source="126" target="131" edge="1">
                    <mxGeometry relative="1" as="geometry"/>
                </mxCell>
                <mxCell id="126" value="Schema II" style="rounded=0;whiteSpace=wrap;html=1;labelBackgroundColor=none;sketch=0;fillColor=#f5f5f5;fontColor=#333333;strokeColor=#000000;labelPosition=center;verticalLabelPosition=bottom;align=center;verticalAlign=top;" parent="1" vertex="1">
                    <mxGeometry x="200" y="308" width="125" height="203" as="geometry"/>
                </mxCell>
                <mxCell id="150" value="extends" style="edgeStyle=orthogonalEdgeStyle;rounded=0;orthogonalLoop=1;jettySize=auto;html=1;dashed=1;dashPattern=1 4;labelBackgroundColor=#FFFFFF;fontColor=#000000;strokeColor=#000000;" parent="1" source="127" edge="1">
                    <mxGeometry relative="1" as="geometry">
                        <mxPoint x="261" y="214" as="targetPoint"/>
                    </mxGeometry>
                </mxCell>
                <mxCell id="127" value="TBL_COUNTRIES" style="swimlane;childLayout=stackLayout;horizontal=1;startSize=30;horizontalStack=0;rounded=1;fontSize=14;fontStyle=0;strokeWidth=2;resizeParent=0;resizeLast=1;shadow=0;dashed=0;align=center;fontColor=#000000;fillColor=#E6E6E6;" parent="1" vertex="1">
                    <mxGeometry x="216" y="315" width="89" height="84" as="geometry"/>
                </mxCell>
                <mxCell id="128" value="ID&#10;NAME&#10;" style="align=left;strokeColor=none;fillColor=none;spacingLeft=4;fontSize=12;verticalAlign=top;resizable=0;rotatable=0;part=1;fontColor=#000000;" parent="127" vertex="1">
                    <mxGeometry y="30" width="89" height="54" as="geometry"/>
                </mxCell>
                <mxCell id="129" value="TBL_STATES" style="swimlane;childLayout=stackLayout;horizontal=1;startSize=30;horizontalStack=0;rounded=1;fontSize=14;fontStyle=0;strokeWidth=2;resizeParent=0;resizeLast=1;shadow=0;dashed=0;align=center;fontColor=#000000;fillColor=#E6E6E6;" parent="1" vertex="1">
                    <mxGeometry x="216" y="405" width="89" height="93.5" as="geometry"/>
                </mxCell>
                <mxCell id="130" value="ID&#10;NAME&#10;COUNTRY_ID&#10;" style="align=left;strokeColor=none;fillColor=none;spacingLeft=4;fontSize=12;verticalAlign=top;resizable=0;rotatable=0;part=1;fontColor=#000000;" parent="129" vertex="1">
                    <mxGeometry y="30" width="89" height="63.5" as="geometry"/>
                </mxCell>
                <mxCell id="131" value="Database II" style="shape=cylinder3;whiteSpace=wrap;html=1;boundedLbl=1;backgroundOutline=1;size=15;fillColor=#E6E6E6;strokeColor=#000000;labelPosition=center;verticalLabelPosition=bottom;align=center;verticalAlign=top;fontColor=#000000;" parent="1" vertex="1">
                    <mxGeometry x="362" y="306" width="210" height="264" as="geometry"/>
                </mxCell>
                <object label="TBL_COUNTRIES" id="132">
                    <mxCell style="shape=table;startSize=30;container=1;collapsible=1;childLayout=tableLayout;fixedRows=1;rowLines=0;fontStyle=1;align=center;resizeLast=1;fontColor=#000000;strokeColor=#000000;fillColor=#E6E6E6;" parent="1" vertex="1">
                        <mxGeometry x="403" y="342" width="131" height="90" as="geometry"/>
                    </mxCell>
                </object>
                <mxCell id="133" value="" style="shape=partialRectangle;collapsible=0;dropTarget=0;pointerEvents=0;fillColor=none;top=0;left=0;bottom=1;right=0;points=[[0,0.5],[1,0.5]];portConstraint=eastwest;" parent="132" vertex="1">
                    <mxGeometry y="30" width="131" height="30" as="geometry"/>
                </mxCell>
                <mxCell id="134" value="PK" style="shape=partialRectangle;connectable=0;fillColor=none;top=0;left=0;bottom=0;right=0;fontStyle=1;overflow=hidden;fontColor=#000000;" parent="133" vertex="1">
                    <mxGeometry width="23.75" height="30" as="geometry"/>
                </mxCell>
                <mxCell id="135" value="ID" style="shape=partialRectangle;connectable=0;fillColor=none;top=0;left=0;bottom=0;right=0;align=left;spacingLeft=6;fontStyle=5;overflow=hidden;fontColor=#000000;" parent="133" vertex="1">
                    <mxGeometry x="23.75" width="107.25" height="30" as="geometry"/>
                </mxCell>
                <mxCell id="136" value="" style="shape=partialRectangle;collapsible=0;dropTarget=0;pointerEvents=0;fillColor=none;top=0;left=0;bottom=0;right=0;points=[[0,0.5],[1,0.5]];portConstraint=eastwest;" parent="132" vertex="1">
                    <mxGeometry y="60" width="131" height="30" as="geometry"/>
                </mxCell>
                <mxCell id="137" value="" style="shape=partialRectangle;connectable=0;fillColor=none;top=0;left=0;bottom=0;right=0;editable=1;overflow=hidden;" parent="136" vertex="1">
                    <mxGeometry width="23.75" height="30" as="geometry"/>
                </mxCell>
                <mxCell id="138" value="NAME" style="shape=partialRectangle;connectable=0;fillColor=none;top=0;left=0;bottom=0;right=0;align=left;spacingLeft=6;overflow=hidden;fontColor=#000000;" parent="136" vertex="1">
                    <mxGeometry x="23.75" width="107.25" height="30" as="geometry"/>
                </mxCell>
                <mxCell id="139" style="edgeStyle=orthogonalEdgeStyle;rounded=0;orthogonalLoop=1;jettySize=auto;html=1;exitX=0;exitY=0.5;exitDx=0;exitDy=0;entryX=0;entryY=0.5;entryDx=0;entryDy=0;fontColor=#000000;strokeColor=#000000;" parent="1" source="140" target="133" edge="1">
                    <mxGeometry relative="1" as="geometry"/>
                </mxCell>
                <mxCell id="140" value="TBL_STATES" style="shape=table;startSize=30;container=1;collapsible=1;childLayout=tableLayout;fixedRows=1;rowLines=0;fontStyle=1;align=center;resizeLast=1;fontColor=#000000;strokeColor=#000000;fillColor=#E6E6E6;" parent="1" vertex="1">
                    <mxGeometry x="403" y="440" width="131" height="120" as="geometry"/>
                </mxCell>
                <mxCell id="141" value="" style="shape=partialRectangle;collapsible=0;dropTarget=0;pointerEvents=0;fillColor=none;top=0;left=0;bottom=1;right=0;points=[[0,0.5],[1,0.5]];portConstraint=eastwest;" parent="140" vertex="1">
                    <mxGeometry y="30" width="131" height="30" as="geometry"/>
                </mxCell>
                <mxCell id="142" value="PK" style="shape=partialRectangle;connectable=0;fillColor=none;top=0;left=0;bottom=0;right=0;fontStyle=1;overflow=hidden;fontColor=#000000;" parent="141" vertex="1">
                    <mxGeometry width="30" height="30" as="geometry"/>
                </mxCell>
                <mxCell id="143" value="ID" style="shape=partialRectangle;connectable=0;fillColor=none;top=0;left=0;bottom=0;right=0;align=left;spacingLeft=6;fontStyle=5;overflow=hidden;fontColor=#000000;" parent="141" vertex="1">
                    <mxGeometry x="30" width="101" height="30" as="geometry"/>
                </mxCell>
                <mxCell id="144" value="" style="shape=partialRectangle;collapsible=0;dropTarget=0;pointerEvents=0;fillColor=none;top=0;left=0;bottom=0;right=0;points=[[0,0.5],[1,0.5]];portConstraint=eastwest;fontColor=#000000;" parent="140" vertex="1">
                    <mxGeometry y="60" width="131" height="30" as="geometry"/>
                </mxCell>
                <mxCell id="145" value="FK" style="shape=partialRectangle;connectable=0;fillColor=none;top=0;left=0;bottom=0;right=0;editable=1;overflow=hidden;fontColor=#000000;" parent="144" vertex="1">
                    <mxGeometry width="30" height="30" as="geometry"/>
                </mxCell>
                <mxCell id="146" value="COUNTRY_ID" style="shape=partialRectangle;connectable=0;fillColor=none;top=0;left=0;bottom=0;right=0;align=left;spacingLeft=6;overflow=hidden;fontColor=#000000;" parent="144" vertex="1">
                    <mxGeometry x="30" width="101" height="30" as="geometry"/>
                </mxCell>
                <mxCell id="147" value="" style="shape=partialRectangle;collapsible=0;dropTarget=0;pointerEvents=0;fillColor=none;top=0;left=0;bottom=0;right=0;points=[[0,0.5],[1,0.5]];portConstraint=eastwest;" parent="140" vertex="1">
                    <mxGeometry y="90" width="131" height="30" as="geometry"/>
                </mxCell>
                <mxCell id="148" value="" style="shape=partialRectangle;connectable=0;fillColor=none;top=0;left=0;bottom=0;right=0;editable=1;overflow=hidden;" parent="147" vertex="1">
                    <mxGeometry width="30" height="30" as="geometry"/>
                </mxCell>
                <mxCell id="149" value="NAME" style="shape=partialRectangle;connectable=0;fillColor=none;top=0;left=0;bottom=0;right=0;align=left;spacingLeft=6;overflow=hidden;fontColor=#000000;" parent="147" vertex="1">
                    <mxGeometry x="30" width="101" height="30" as="geometry"/>
                </mxCell>
            </root>
        </mxGraphModel>
    </diagram>
</mxfile>